<svg id="Group_6" data-name="Group 6" xmlns="http://www.w3.org/2000/svg" width="18" height="14.951" viewBox="0 0 18 14.951">
  <path id="Path_27" data-name="Path 27" d="M16.988,47.738l.028.006H4.971l3.786-3.795a.994.994,0,0,0,0-1.4l-.589-.589a.986.986,0,0,0-1.391,0L.287,48.451a.992.992,0,0,0,0,1.4l6.491,6.491a.986.986,0,0,0,1.391,0l.589-.589a.975.975,0,0,0,.287-.7.946.946,0,0,0-.287-.682L4.929,50.554H17a1.02,1.02,0,0,0,1-1.01v-.834A1,1,0,0,0,16.988,47.738Z" transform="translate(0 -41.674)" fill="#fff"/>
</svg>
