<svg xmlns="http://www.w3.org/2000/svg" width="44.988" height="50.182" viewBox="0 0 44.988 50.182">
  <g id="boss" transform="translate(-26.495 -0.001)">
    <path id="Path_29" data-name="Path 29" d="M192.131,306.206V300.15H176.558v6.056l7.786,6.921Z" transform="translate(-135.355 -270.731)" fill="#e6af78"/>
    <path id="Path_30" data-name="Path 30" d="M68.815,363.745,58.11,361.226a1.718,1.718,0,0,1-.45-.181L48.989,366.1l-8.333-5.3a1.724,1.724,0,0,1-.788.426l-10.706,2.519a3.461,3.461,0,0,0-2.668,3.369v6.776a1.73,1.73,0,0,0,1.73,1.73H69.753a1.73,1.73,0,0,0,1.73-1.73v-6.776A3.46,3.46,0,0,0,68.815,363.745Z" transform="translate(0 -325.437)" fill="#ff507d"/>
    <path id="Path_31" data-name="Path 31" d="M176.558,300.149v6.39c9.809,3.534,15.573-5.311,15.573-5.311v-1.079H176.558Z" transform="translate(-135.355 -270.73)" fill="#d29b6e"/>
    <path id="Path_32" data-name="Path 32" d="M141.249,97.127,142,113.713a5.191,5.191,0,0,0,2.071,3.917l3.577,2.683a5.192,5.192,0,0,0,3.115,1.038h3.461a5.191,5.191,0,0,0,3.115-1.038l3.577-2.683a5.191,5.191,0,0,0,2.071-3.917l.754-16.586Z" transform="translate(-103.507 -87.607)" fill="#f0c087"/>
    <path id="Path_33" data-name="Path 33" d="M149.9,100.587c3.461,0,8.652-.865,9.883-3.461H141.249L142,113.712a5.191,5.191,0,0,0,2.071,3.917l3.577,2.683a5.192,5.192,0,0,0,3.115,1.038h1.73c-1.73,0-5.191-3.461-5.191-7.786V103.182A2.762,2.762,0,0,1,149.9,100.587Z" transform="translate(-103.507 -87.606)" fill="#e6af78"/>
    <g id="Group_10" data-name="Group 10" transform="translate(26.495 39.532)">
      <path id="Path_34" data-name="Path 34" d="M32.849,408.368l-5.606-5.036a3.455,3.455,0,0,0-.745,2.145v6.776a1.73,1.73,0,0,0,1.73,1.73h6.056v-2.4A4.326,4.326,0,0,0,32.849,408.368Z" transform="translate(-26.498 -403.332)" fill="#d23c69"/>
      <path id="Path_35" data-name="Path 35" d="M407.5,408.368l5.606-5.036a3.455,3.455,0,0,1,.745,2.145v6.776a1.73,1.73,0,0,1-1.73,1.73h-6.056v-2.4A4.326,4.326,0,0,1,407.5,408.368Z" transform="translate(-368.862 -403.332)" fill="#d23c69"/>
    </g>
    <path id="Path_36" data-name="Path 36" d="M238.26,440.342h-4.326l.541-7.786h3.244Z" transform="translate(-187.108 -390.16)" fill="#5b5d6e"/>
    <path id="Path_37" data-name="Path 37" d="M238.26,414.9h-4.326v1.628a.967.967,0,0,0,.967.967h2.391a.967.967,0,0,0,.967-.967V414.9Z" transform="translate(-187.108 -374.236)" fill="#515262"/>
    <g id="Group_11" data-name="Group 11" transform="translate(38.607 33.326)">
      <path id="Path_38" data-name="Path 38" d="M152.552,340.243l7.908,7.117a29.839,29.839,0,0,0-4.948,3.371,1.11,1.11,0,0,1-1.719-.389l-3.715-8.174,1.175-1.763A.865.865,0,0,1,152.552,340.243Z" transform="translate(-150.078 -340.021)" fill="#d23c69"/>
      <path id="Path_39" data-name="Path 39" d="M263.91,340.243,256,347.36a29.837,29.837,0,0,1,4.948,3.371,1.11,1.11,0,0,0,1.719-.389l3.715-8.174-1.175-1.763A.865.865,0,0,0,263.91,340.243Z" transform="translate(-245.62 -340.021)" fill="#d23c69"/>
    </g>
    <path id="Path_40" data-name="Path 40" d="M309.516,33.7l.811,5.732c3.7.74,4.236,6.551,4.313,8.21a1.706,1.706,0,0,0,.273.845l1.413,2.191s-.484-3.623,1.73-6.056C318.056,44.623,318.816,30.24,309.516,33.7Z" transform="translate(-255.282 -29.912)" fill="#785550"/>
    <path id="Path_41" data-name="Path 41" d="M355.35,187.624l-.977,3.907a1.04,1.04,0,0,1-1.009.788h0a1.04,1.04,0,0,1-1.032-.911l-.5-4a1.792,1.792,0,0,1,1.778-2.014h0A1.792,1.792,0,0,1,355.35,187.624Z" transform="translate(-293.438 -167.225)" fill="#f0c087"/>
    <path id="Path_42" data-name="Path 42" d="M117.455,2.239l1.28.874c-5.786,4.272-4.7,11.6-4.7,11.6,1.73,1.73,1.73,6.056,1.73,6.056l1.73-1.73s-.668-5,2.6-6.921c3.028-1.784,5.678-.865,8.381-.865,7.246,0,9.273-2.731,8.922-6.056-.182-1.721-2.813-5.3-9.517-5.191C125.167.05,120.086.869,117.455,2.239Z" transform="translate(-78.884 0)" fill="#694b4b"/>
    <path id="Path_43" data-name="Path 43" d="M116.95,39.132a9.5,9.5,0,0,1,1.784-7.381c-5.786,4.272-4.7,11.6-4.7,11.6,1.73,1.73,1.73,6.056,1.73,6.056l1.73-1.73s-.668-5,2.6-6.921c3.028-1.784,5.678-.865,8.381-.865a21.256,21.256,0,0,0,3.12-.214C126.007,39.862,122.718,35.635,116.95,39.132Z" transform="translate(-78.884 -28.638)" fill="#5a4146"/>
    <path id="Path_44" data-name="Path 44" d="M123.652,187.624l.977,3.907a1.04,1.04,0,0,0,1.009.788h0a1.04,1.04,0,0,0,1.032-.911l.5-4a1.792,1.792,0,0,0-1.778-2.014h0A1.792,1.792,0,0,0,123.652,187.624Z" transform="translate(-87.586 -167.225)" fill="#e6af78"/>
  </g>
</svg>
