<svg xmlns="http://www.w3.org/2000/svg" width="10" height="13.333" viewBox="0 0 10 13.333">
  <g id="sort" transform="translate(-14 -8)">
    <path id="Path_1" data-name="Path 1" d="M18.837,10.107,16.893,8.163a.555.555,0,0,0-.786,0l-1.944,1.944a.555.555,0,1,0,.786.786l1-1V20.778a.556.556,0,0,0,1.111,0V9.9l1,1a.555.555,0,1,0,.786-.786Z" transform="translate(0 0)" fill="#fff"/>
    <path id="Path_2" data-name="Path 2" d="M36.837,18.44a.555.555,0,0,0-.786,0l-1,1V8.556a.556.556,0,0,0-1.111,0V19.437l-1-1a.555.555,0,0,0-.786.786l1.944,1.944a.555.555,0,0,0,.786,0l1.944-1.944A.555.555,0,0,0,36.837,18.44Z" transform="translate(-13 0)" fill="#fff"/>
  </g>
</svg>
