<svg xmlns="http://www.w3.org/2000/svg" width="60" height="43.549" viewBox="0 0 60 43.549">
  <g id="team" transform="translate(0 -70.193)" opacity="0.5">
    <path id="Path_46" data-name="Path 46" d="M371.613,205.224v.679a7.745,7.745,0,0,0,.4,2.448l1.538,4.615h2.9V202.321h-1.935A2.9,2.9,0,0,0,371.613,205.224Z" transform="translate(-328.065 -116.644)" fill="#5a4146"/>
    <path id="Path_47" data-name="Path 47" d="M399.444,199.946l-1.638,5.732-7.742-6.774a1.935,1.935,0,0,1-1.935-1.935h0a2.9,2.9,0,0,1,2.9-2.9h6.774A1.935,1.935,0,0,1,399.742,196v1.819A7.739,7.739,0,0,1,399.444,199.946Z" transform="translate(-342.645 -109.356)" fill="#694b4b"/>
    <rect id="Rectangle_10" data-name="Rectangle 10" width="5.806" height="4.283" transform="translate(47.419 99.226)" fill="#e6af78"/>
    <path id="Path_48" data-name="Path 48" d="M404.645,319.713a7.678,7.678,0,0,0,5.806,0v-1.778h-5.806v1.778Z" transform="translate(-357.226 -218.71)" fill="#d29b6e"/>
    <path id="Path_49" data-name="Path 49" d="M364.088,339.3l-4.669-1.334-2.9,1.926-2.9-1.927-4.668,1.334a2.9,2.9,0,0,0-2.106,2.792v7.075a.968.968,0,0,0,.968.968h17.419a.968.968,0,0,0,.968-.968v-7.075A2.9,2.9,0,0,0,364.088,339.3Z" transform="translate(-306.194 -236.395)" fill="#d5dced"/>
    <path id="Path_50" data-name="Path 50" d="M423.1,364.717h-1.935l.484-10.233h.968Z" transform="translate(-371.806 -250.976)" fill="#afb9d2"/>
    <path id="Path_51" data-name="Path 51" d="M385.677,246.089h0a5.806,5.806,0,0,1-5.806-5.806v-1.134a1.936,1.936,0,0,1,.567-1.369l1.755-1.755a1.913,1.913,0,0,1,1.4-.569c3.094.1,5.832.76,7.329,2.222a1.91,1.91,0,0,1,.558,1.371v1.233A5.806,5.806,0,0,1,385.677,246.089Z" transform="translate(-335.355 -145.896)" fill="#f0c087"/>
    <path id="Path_52" data-name="Path 52" d="M382.774,239.388a1.932,1.932,0,0,1,2.052-1.933,20.42,20.42,0,0,1,6.631,1.307,1.871,1.871,0,0,0-.531-1.084c-1.5-1.462-4.235-2.125-7.329-2.222h0a1.913,1.913,0,0,0-1.4.569l-1.755,1.755a1.935,1.935,0,0,0-.567,1.369v1.134a5.805,5.805,0,0,0,4.2,5.576,5.758,5.758,0,0,1-1.294-3.64v-2.829Z" transform="translate(-335.355 -145.895)" fill="#e6af78"/>
    <path id="Path_53" data-name="Path 53" d="M478.968,363.548a2.9,2.9,0,0,1,.85-2.053L482.309,359a2.892,2.892,0,0,1,.53,1.66v7.075a.968.968,0,0,1-.968.968h-2.9v-5.16Z" transform="translate(-422.839 -254.966)" fill="#c7cfe2"/>
    <path id="Path_54" data-name="Path 54" d="M422.613,356.419h-.968a.484.484,0,0,1-.484-.484v-1.452H423.1v1.452A.484.484,0,0,1,422.613,356.419Z" transform="translate(-371.806 -250.976)" fill="#959cb5"/>
    <g id="Group_12" data-name="Group 12" transform="translate(46.349 100.804)">
      <path id="Path_55" data-name="Path 55" d="M399.485,334.106l-1.64,1.253a.581.581,0,0,1-.862-.183l-1.471-2.687.592-.9a.387.387,0,0,1,.587-.072Z" transform="translate(-395.512 -331.41)" fill="#c7cfe2"/>
      <path id="Path_56" data-name="Path 56" d="M429.419,334.107l1.64,1.253a.581.581,0,0,0,.862-.183l1.471-2.687-.592-.9a.387.387,0,0,0-.587-.072Z" transform="translate(-425.446 -331.411)" fill="#c7cfe2"/>
    </g>
    <path id="Path_57" data-name="Path 57" d="M19.14,212.056a34.926,34.926,0,0,1-1.625-7.919,7.015,7.015,0,0,0-6.884-6.774,7.015,7.015,0,0,0-6.884,6.774,34.927,34.927,0,0,1-1.625,7.919.964.964,0,0,0,.5,1.231,18.485,18.485,0,0,0,5.054,1.495h5.9a18.647,18.647,0,0,0,5.054-1.495A.964.964,0,0,0,19.14,212.056Z" transform="translate(-1.817 -112.267)" fill="#5a4146"/>
    <path id="Path_58" data-name="Path 58" d="M61.485,213.288a.964.964,0,0,0,.5-1.231,34.926,34.926,0,0,1-1.624-7.919,7.015,7.015,0,0,0-6.884-6.774h-.029a2.953,2.953,0,0,0-1.437,5.475,2.674,2.674,0,0,0,.248.132l2.2,11.813h1.969A18.66,18.66,0,0,0,61.485,213.288Z" transform="translate(-44.666 -112.268)" fill="#694b4b"/>
    <path id="Path_59" data-name="Path 59" d="M15.814,315.878l-3.132-1.566a1.935,1.935,0,0,1-1.07-1.731v-2.9H5.806v2.9a1.935,1.935,0,0,1-1.07,1.731L1.6,315.878a2.9,2.9,0,0,0-1.6,2.6v5.719a.968.968,0,0,0,.968.968H16.452a.968.968,0,0,0,.968-.968v-5.719A2.9,2.9,0,0,0,15.814,315.878Z" transform="translate(0 -211.42)" fill="#e6af78"/>
    <path id="Path_60" data-name="Path 60" d="M52.058,313.548a7.649,7.649,0,0,0,2.955-.6,1.908,1.908,0,0,1-.052-.37v-2.9H49.154v2.9a1.905,1.905,0,0,1-.052.372A7.687,7.687,0,0,0,52.058,313.548Z" transform="translate(-43.348 -211.419)" fill="#d29b6e"/>
    <path id="Path_61" data-name="Path 61" d="M15.814,354.184l-2.231-1.115a5.8,5.8,0,0,1-9.748,0L1.6,354.184a2.9,2.9,0,0,0-1.6,2.6V362.5a.968.968,0,0,0,.968.968H16.452a.968.968,0,0,0,.968-.968V356.78A2.9,2.9,0,0,0,15.814,354.184Z" transform="translate(0 -249.726)" fill="#d5dced"/>
    <path id="Path_62" data-name="Path 62" d="M30.88,254.486h0a5.808,5.808,0,0,1-5.758-5.055.976.976,0,0,1,.517-1.006,8.079,8.079,0,0,0,1.713-1.157,5.588,5.588,0,0,0,1.324-1.742.958.958,0,0,1,1.091-.53,16.673,16.673,0,0,1,6.569,3.365.936.936,0,0,1,.333.778A5.807,5.807,0,0,1,30.88,254.486Z" transform="translate(-22.17 -154.293)" fill="#f0c087"/>
    <path id="Path_63" data-name="Path 63" d="M36.335,248.36a16.672,16.672,0,0,0-6.569-3.366.958.958,0,0,0-1.091.53,5.539,5.539,0,0,1-.884,1.291v0a5.191,5.191,0,0,1-.439.448,8.075,8.075,0,0,1-1.713,1.157.976.976,0,0,0-.517,1.006A5.816,5.816,0,0,0,30,254.419a4.237,4.237,0,0,1-2.023-3.8v-1.38c.22-.162.441-.324.664-.523a7.7,7.7,0,0,0,1.384-1.633,14.616,14.616,0,0,1,5.044,2.744c.183.161.639.58,1.171,1.08a5.762,5.762,0,0,0,.429-1.765A.936.936,0,0,0,36.335,248.36Z" transform="translate(-22.17 -154.292)" fill="#e6af78"/>
    <path id="Path_64" data-name="Path 64" d="M.59,369.859A2.9,2.9,0,0,0,0,371.6v5.719a.968.968,0,0,0,.968.968h2.9v-4.876a1.935,1.935,0,0,0-.726-1.511Z" transform="translate(0 -264.549)" fill="#c7cfe2"/>
    <path id="Path_65" data-name="Path 65" d="M145.968,329.136l-8.1-2.944-5.806,1.936-5.806-1.935-8.1,2.944a3.871,3.871,0,0,0-2.548,3.638v6a.968.968,0,0,0,.968.968h30.968a.968.968,0,0,0,.968-.968v-6A3.871,3.871,0,0,0,145.968,329.136Z" transform="translate(-102.065 -225.999)" fill="#ff507d"/>
    <path id="Path_66" data-name="Path 66" d="M240.406,359.226l-.922,9.677h3.871l-.922-9.677Z" transform="translate(-211.419 -255.162)" fill="#707487"/>
    <path id="Path_67" data-name="Path 67" d="M244.259,345.974h-2.032a.677.677,0,0,1-.677-.677v-2.588h3.387V345.3A.677.677,0,0,1,244.259,345.974Z" transform="translate(-213.242 -240.581)" fill="#5b5d6e"/>
    <path id="Path_68" data-name="Path 68" d="M351.6,359.855a3.867,3.867,0,0,1,1.042,2.637v6a.968.968,0,0,1-.968.968h-4.839v-3.235a3.871,3.871,0,0,1,1.134-2.737Z" transform="translate(-306.194 -255.717)" fill="#d23c69"/>
    <path id="Path_69" data-name="Path 69" d="M186.451,80.235V72.128a1.935,1.935,0,0,0-1.935-1.935H172.9a7.742,7.742,0,0,0-7.742,7.742v2.3a9.676,9.676,0,0,0,.5,3.06l.322.966a2.9,2.9,0,0,1,.149.918v.5h19.355v-.5a2.9,2.9,0,0,1,.149-.918l.322-.966A9.674,9.674,0,0,0,186.451,80.235Z" transform="translate(-145.806)" fill="#5a4146"/>
    <path id="Path_70" data-name="Path 70" d="M206.452,74.124a3.931,3.931,0,0,0,3.931,3.931h.544l.263,7.621h10.745v-.5a2.9,2.9,0,0,1,.149-.918l.322-.966a9.677,9.677,0,0,0,.5-3.06V72.128a1.935,1.935,0,0,0-1.935-1.935H210.383A3.931,3.931,0,0,0,206.452,74.124Z" transform="translate(-182.258)" fill="#694b4b"/>
    <rect id="Rectangle_11" data-name="Rectangle 11" width="11.613" height="8.709" transform="translate(24.193 93.419)" fill="#e6af78"/>
    <path id="Path_71" data-name="Path 71" d="M206.451,271.658a11.545,11.545,0,0,0,11.613,0v-3.272H206.451v3.272Z" transform="translate(-182.257 -174.967)" fill="#d29b6e"/>
    <g id="Group_13" data-name="Group 13" transform="translate(22.258 98.582)">
      <path id="Path_72" data-name="Path 72" d="M197.678,315.99l-3.086,3.086a.968.968,0,0,1-1.455-.1l-3.2-4.217.837-1.764a.968.968,0,0,1,1.382-.409Z" transform="translate(-189.936 -312.443)" fill="#d23c69"/>
      <path id="Path_73" data-name="Path 73" d="M256,315.99l3.086,3.086a.968.968,0,0,0,1.455-.1l3.2-4.217L262.9,313a.968.968,0,0,0-1.382-.409Z" transform="translate(-248.258 -312.443)" fill="#d23c69"/>
    </g>
    <path id="Path_74" data-name="Path 74" d="M183.1,155.428h0a9.677,9.677,0,0,1-9.677-9.677v-1.134a1.936,1.936,0,0,1,.567-1.369l.8-.8a1.936,1.936,0,0,0,.567-1.369v-2.32a.96.96,0,0,1,.737-.94c2.289-.541,9.411-1.821,14.258,1.744a1.242,1.242,0,0,1,.489,1v.514a1.936,1.936,0,0,0,.567,1.369l.8.8a1.935,1.935,0,0,1,.567,1.369v1.134A9.677,9.677,0,0,1,183.1,155.428Z" transform="translate(-153.096 -59.106)" fill="#f0c087"/>
    <path id="Path_75" data-name="Path 75" d="M190.35,139.574c-3.409-2.507-7.937-2.616-11.124-2.273a26.106,26.106,0,0,0-3.134.529.96.96,0,0,0-.737.94v2.32a1.936,1.936,0,0,1-.567,1.369l-.8.8a1.936,1.936,0,0,0-.567,1.369v1.134a9.674,9.674,0,0,0,8.508,9.6,9.637,9.637,0,0,1-2.7-6.7v-7.074a1.937,1.937,0,0,1,1.7-1.922c2.322-.291,6.576-.466,9.911,1.42v-.514A1.241,1.241,0,0,0,190.35,139.574Z" transform="translate(-153.096 -59.119)" fill="#e6af78"/>
    <path id="Path_76" data-name="Path 76" d="M116.655,359.855a3.867,3.867,0,0,0-1.042,2.637v6a.968.968,0,0,0,.968.968h4.839v-3.235a3.871,3.871,0,0,0-1.134-2.737Z" transform="translate(-102.065 -255.717)" fill="#d23c69"/>
  </g>
</svg>
